<svg id="svg" version="1.1" xmlns="http://www.w3.org/2000/svg" xmlns:xlink="http://www.w3.org/1999/xlink" width="154" height="91" viewBox="122 75 154 91"><g id="svgg"><path id="path0" d="M244.428 76.867 C 244.555 77.072,244.475 77.117,244.183 77.006 C 243.619 76.789,242.924 77.060,243.141 77.411 C 243.240 77.572,243.184 77.607,243.006 77.497 C 242.643 77.273,241.343 78.227,241.610 78.523 C 241.713 78.636,241.645 78.642,241.460 78.535 C 241.017 78.279,239.649 79.314,237.370 81.628 C 236.367 82.646,235.840 83.124,236.198 82.690 L 236.849 81.901 236.005 82.663 C 235.541 83.083,235.219 83.483,235.290 83.554 C 235.512 83.776,234.578 84.631,234.300 84.459 C 234.143 84.362,234.114 84.424,234.229 84.609 C 234.351 84.808,233.719 85.615,232.512 86.798 C 231.461 87.829,230.901 88.438,231.268 88.151 C 231.636 87.865,231.401 88.144,230.747 88.771 C 230.093 89.398,229.715 89.824,229.909 89.716 C 230.540 89.365,229.780 90.496,228.837 91.310 C 228.361 91.721,228.152 91.952,228.374 91.824 C 228.595 91.696,228.355 91.989,227.841 92.475 C 226.743 93.513,225.258 95.493,225.799 95.198 C 226.004 95.086,225.873 95.271,225.509 95.609 C 225.144 95.947,225.027 96.116,225.248 95.984 C 225.470 95.852,225.138 96.233,224.511 96.830 C 223.885 97.428,223.255 97.917,223.112 97.917 C 222.953 97.917,222.963 98.049,223.138 98.260 C 223.357 98.524,223.152 98.869,222.258 99.747 C 221.618 100.375,221.089 100.777,221.083 100.640 C 221.077 100.503,220.710 100.801,220.268 101.302 C 219.825 101.803,219.546 102.038,219.647 101.823 C 219.748 101.608,219.617 101.667,219.356 101.953 C 219.094 102.240,218.562 102.638,218.173 102.839 C 217.784 103.039,217.539 103.332,217.629 103.490 C 217.718 103.647,217.700 103.693,217.588 103.592 C 217.329 103.359,215.365 104.345,215.365 104.708 C 215.365 104.857,215.247 104.906,215.104 104.818 C 214.961 104.729,214.844 104.788,214.844 104.948 C 214.844 105.108,214.737 105.173,214.607 105.093 C 214.272 104.886,213.515 105.215,213.687 105.493 C 213.765 105.620,213.628 105.646,213.382 105.552 C 213.062 105.429,212.994 105.474,213.141 105.713 C 213.295 105.962,213.200 105.999,212.760 105.859 C 212.364 105.734,212.232 105.766,212.351 105.959 C 212.461 106.138,212.376 106.186,212.123 106.089 C 211.901 106.004,211.719 106.060,211.719 106.214 C 211.719 106.368,211.543 106.427,211.328 106.344 C 211.113 106.262,210.938 106.332,210.938 106.500 C 210.938 106.687,210.736 106.742,210.417 106.641 C 210.114 106.545,209.896 106.594,209.896 106.758 C 209.896 106.934,209.635 106.976,209.206 106.868 C 208.702 106.741,208.568 106.780,208.711 107.010 C 208.857 107.246,208.662 107.279,207.931 107.142 C 207.259 107.016,207.010 107.047,207.130 107.240 C 207.244 107.425,206.966 107.508,206.321 107.481 C 203.922 107.381,200.853 107.621,202.083 107.813 C 202.808 107.925,201.715 107.997,199.219 108.000 C 196.569 108.003,195.495 107.931,196.094 107.791 C 196.653 107.661,195.605 107.616,193.376 107.676 C 191.380 107.729,189.890 107.684,190.065 107.576 C 190.241 107.468,186.377 107.389,181.480 107.400 C 176.583 107.412,172.916 107.504,173.332 107.605 C 173.748 107.705,173.034 107.742,171.745 107.686 C 170.086 107.614,169.629 107.653,170.182 107.819 C 170.766 107.995,170.504 108.028,169.141 107.952 C 167.852 107.880,167.509 107.919,167.969 108.085 C 168.427 108.250,168.157 108.280,167.057 108.185 C 165.881 108.083,165.591 108.121,165.885 108.337 C 166.181 108.555,165.992 108.586,165.104 108.464 C 164.195 108.339,164.020 108.369,164.323 108.600 C 164.632 108.836,164.534 108.867,163.854 108.750 C 163.269 108.649,163.051 108.692,163.171 108.886 C 163.292 109.082,163.073 109.116,162.467 108.996 C 161.777 108.860,161.672 108.887,161.979 109.121 C 162.288 109.357,162.191 109.388,161.510 109.271 C 160.925 109.170,160.707 109.213,160.827 109.407 C 160.948 109.603,160.730 109.637,160.124 109.517 C 159.435 109.381,159.329 109.408,159.635 109.641 C 159.947 109.878,159.876 109.905,159.288 109.776 C 158.792 109.668,158.607 109.707,158.724 109.896 C 158.841 110.086,158.667 110.119,158.186 109.998 C 157.635 109.860,157.522 109.897,157.686 110.163 C 157.841 110.413,157.777 110.459,157.445 110.331 C 157.182 110.231,156.829 110.321,156.603 110.548 C 156.388 110.762,156.075 110.936,155.906 110.934 C 155.720 110.931,155.754 110.818,155.990 110.649 C 156.314 110.415,156.300 110.394,155.903 110.522 C 155.641 110.607,155.370 110.677,155.302 110.677 C 155.234 110.677,155.258 110.807,155.356 110.965 C 155.477 111.162,155.347 111.194,154.948 111.068 C 154.522 110.933,154.415 110.968,154.557 111.198 C 154.699 111.428,154.592 111.463,154.167 111.328 C 153.799 111.211,153.641 111.239,153.742 111.403 C 153.953 111.745,153.246 112.009,152.692 111.797 C 152.384 111.678,152.318 111.726,152.464 111.963 C 152.618 112.212,152.522 112.249,152.083 112.109 C 151.730 111.997,151.559 112.023,151.652 112.174 C 151.865 112.518,150.628 113.046,150.091 112.839 C 149.798 112.727,149.716 112.772,149.841 112.974 C 149.962 113.170,149.887 113.222,149.624 113.121 C 149.403 113.036,149.298 112.843,149.391 112.693 C 149.492 112.529,149.434 112.497,149.246 112.613 C 149.021 112.753,149.011 112.901,149.213 113.144 C 149.419 113.393,149.385 113.522,149.082 113.638 C 148.847 113.728,148.738 113.687,148.828 113.542 C 148.917 113.398,148.811 113.354,148.583 113.442 C 148.361 113.527,148.237 113.689,148.307 113.802 C 148.479 114.080,147.680 114.368,147.332 114.153 C 147.156 114.045,147.133 114.108,147.268 114.327 C 147.424 114.579,147.362 114.626,147.034 114.500 C 146.733 114.385,146.648 114.427,146.774 114.631 C 146.898 114.831,146.818 114.877,146.535 114.769 C 146.302 114.679,146.030 114.736,145.932 114.895 C 145.817 115.081,145.884 115.117,146.119 114.995 C 146.320 114.891,146.253 114.992,145.971 115.221 C 145.689 115.449,145.312 115.580,145.133 115.512 C 144.954 115.443,144.728 115.518,144.630 115.677 C 144.521 115.852,144.569 115.893,144.751 115.780 C 144.917 115.678,145.052 115.657,145.052 115.733 C 145.052 115.810,144.688 116.061,144.242 116.291 C 143.644 116.600,143.481 116.619,143.620 116.363 C 143.723 116.172,143.521 116.357,143.171 116.774 C 142.821 117.191,142.406 117.453,142.249 117.355 C 142.092 117.258,141.878 117.316,141.775 117.484 C 141.646 117.692,141.702 117.719,141.952 117.568 C 142.264 117.380,142.265 117.413,141.957 117.792 C 141.759 118.036,141.466 118.210,141.306 118.177 C 141.146 118.145,140.334 118.790,139.501 119.611 C 138.669 120.432,137.896 121.047,137.785 120.979 C 137.674 120.910,137.183 121.283,136.695 121.809 C 136.207 122.334,136.012 122.608,136.263 122.418 C 137.058 121.814,136.754 122.527,135.876 123.324 C 135.173 123.962,135.119 123.981,135.551 123.438 L 136.068 122.786 135.488 123.277 C 135.169 123.547,134.960 123.852,135.024 123.955 C 135.087 124.058,134.959 124.364,134.738 124.636 C 134.517 124.908,134.411 124.984,134.501 124.805 C 134.738 124.338,134.500 124.403,134.081 124.920 C 133.839 125.219,133.828 125.298,134.049 125.165 C 134.536 124.872,134.442 125.403,133.934 125.814 C 133.635 126.057,133.556 126.068,133.689 125.846 C 133.974 125.372,133.716 125.448,133.300 125.961 C 133.057 126.261,133.047 126.339,133.268 126.206 C 133.716 125.938,133.676 126.329,133.185 127.030 C 132.961 127.350,132.650 127.534,132.494 127.438 C 132.331 127.337,132.286 127.384,132.387 127.548 C 132.591 127.877,131.247 130.758,130.969 130.587 C 130.867 130.523,130.714 130.653,130.629 130.874 C 130.544 131.096,130.580 131.212,130.708 131.133 C 130.836 131.054,130.877 131.233,130.799 131.532 C 130.691 131.945,130.604 131.992,130.437 131.728 C 130.292 131.500,130.215 131.485,130.212 131.684 C 130.210 131.852,130.139 132.203,130.054 132.466 C 129.922 132.873,129.944 132.885,130.208 132.552 C 130.472 132.219,130.495 132.231,130.363 132.638 C 130.278 132.901,130.207 133.252,130.204 133.420 C 130.202 133.598,130.088 133.563,129.928 133.333 C 129.726 133.044,129.698 133.179,129.818 133.854 C 129.942 134.552,129.913 134.674,129.694 134.375 C 129.476 134.078,129.446 134.234,129.567 135.026 C 129.689 135.825,129.659 135.977,129.437 135.677 C 129.215 135.378,129.185 135.529,129.307 136.328 C 129.394 136.901,129.369 137.234,129.251 137.069 C 129.133 136.904,129.036 138.335,129.036 140.250 C 129.036 142.164,129.126 143.530,129.236 143.285 C 129.346 143.039,129.373 143.366,129.297 144.010 C 129.212 144.731,129.248 145.048,129.389 144.832 C 129.696 144.364,130.036 145.667,129.800 146.409 C 129.676 146.799,129.720 146.886,129.964 146.735 C 130.201 146.589,130.249 146.654,130.131 146.962 C 129.918 147.517,130.183 148.224,130.524 148.013 C 130.688 147.911,130.716 148.070,130.599 148.438 C 130.482 148.805,130.510 148.964,130.674 148.862 C 130.993 148.665,131.318 149.418,131.080 149.803 C 130.972 149.979,131.035 150.003,131.254 149.867 C 131.507 149.711,131.553 149.774,131.427 150.101 C 131.312 150.402,131.354 150.487,131.558 150.361 C 131.761 150.236,131.803 150.321,131.688 150.622 C 131.594 150.868,131.616 151.007,131.739 150.931 C 132.008 150.765,133.653 153.339,133.469 153.637 C 133.397 153.753,133.543 154.007,133.792 154.202 C 134.207 154.528,134.215 154.514,133.885 154.036 C 133.688 153.750,133.913 153.926,134.387 154.427 C 138.194 158.455,139.377 159.675,138.932 159.115 L 138.415 158.464 139.195 159.111 C 140.349 160.069,140.546 160.262,140.129 160.024 C 139.882 159.883,139.824 159.914,139.952 160.120 C 140.055 160.288,140.251 160.356,140.387 160.272 C 140.523 160.188,141.043 160.372,141.541 160.680 C 142.761 161.434,142.702 161.648,141.471 160.936 C 140.934 160.626,140.729 160.567,141.016 160.805 C 141.745 161.411,143.062 162.081,142.851 161.738 C 142.730 161.543,142.881 161.548,143.335 161.755 C 143.697 161.920,143.933 162.154,143.859 162.275 C 143.784 162.395,143.924 162.417,144.170 162.323 C 144.471 162.207,144.556 162.249,144.430 162.453 C 144.305 162.656,144.390 162.699,144.691 162.583 C 144.992 162.467,145.077 162.510,144.951 162.713 C 144.825 162.916,144.910 162.959,145.211 162.843 C 145.539 162.718,145.601 162.764,145.445 163.017 C 145.310 163.236,145.333 163.299,145.509 163.190 C 145.894 162.953,146.647 163.278,146.450 163.597 C 146.349 163.761,146.507 163.789,146.875 163.672 C 147.314 163.533,147.410 163.569,147.256 163.818 C 147.109 164.055,147.175 164.103,147.483 163.985 C 147.722 163.893,147.917 163.928,147.917 164.063 C 147.917 164.197,148.112 164.232,148.350 164.140 C 148.639 164.029,148.721 164.074,148.597 164.276 C 148.475 164.473,148.551 164.524,148.815 164.422 C 149.043 164.335,149.219 164.405,149.219 164.583 C 149.219 164.757,149.394 164.832,149.609 164.750 C 149.824 164.667,150.000 164.726,150.000 164.880 C 150.000 165.034,150.176 165.092,150.391 165.010 C 150.605 164.928,150.781 164.986,150.781 165.140 C 150.781 165.294,150.957 165.353,151.172 165.270 C 151.387 165.188,151.563 165.236,151.563 165.378 C 151.563 165.526,151.855 165.562,152.252 165.462 C 152.778 165.330,152.893 165.369,152.734 165.625 C 152.575 165.882,152.693 165.919,153.238 165.783 C 153.742 165.656,153.896 165.691,153.765 165.903 C 153.633 166.117,153.819 166.149,154.427 166.016 C 155.028 165.884,155.221 165.915,155.092 166.124 C 154.962 166.333,155.236 166.378,156.036 166.278 C 156.872 166.173,157.028 166.202,156.641 166.389 C 156.078 166.662,156.609 166.715,159.585 166.684 C 160.491 166.674,160.908 166.764,160.797 166.944 C 160.679 167.134,161.520 167.162,163.542 167.034 C 165.905 166.885,166.502 166.919,166.688 167.214 C 166.827 167.433,166.921 167.458,166.923 167.277 C 166.926 167.061,167.837 167.006,170.182 167.080 C 172.300 167.147,173.438 167.090,173.438 166.916 C 173.438 166.746,173.909 166.711,174.729 166.820 C 175.439 166.914,176.230 166.902,176.486 166.793 C 176.743 166.684,177.363 166.616,177.865 166.641 C 178.538 166.676,178.676 166.621,178.394 166.432 C 178.118 166.247,178.373 166.178,179.305 166.185 C 182.073 166.206,182.839 166.139,182.683 165.887 C 182.595 165.744,182.694 165.696,182.907 165.777 C 183.116 165.858,184.792 165.628,186.631 165.266 C 200.665 162.506,208.108 162.124,217.318 163.695 C 218.607 163.915,219.954 164.134,220.313 164.183 C 220.671 164.232,222.416 164.759,224.190 165.353 C 228.480 166.790,228.831 166.465,227.638 162.163 L 227.150 160.406 227.963 160.540 C 228.410 160.614,229.889 160.852,231.250 161.070 C 236.467 161.903,241.947 163.758,244.616 165.594 C 246.722 167.042,247.229 166.512,247.196 162.896 C 247.138 156.485,243.907 148.761,238.733 142.661 L 237.291 140.962 238.923 136.301 C 243.937 121.984,246.489 119.405,257.452 117.578 C 263.167 116.625,265.653 115.659,268.099 113.443 C 269.368 112.293,269.383 112.263,268.685 112.251 C 268.277 112.245,267.716 112.492,267.383 112.826 C 267.061 113.148,266.700 113.379,266.582 113.340 C 266.464 113.301,266.442 113.388,266.532 113.535 C 266.681 113.775,266.344 113.916,265.820 113.833 C 265.713 113.816,265.625 113.926,265.625 114.078 C 265.625 114.230,265.508 114.281,265.365 114.193 C 265.221 114.104,265.104 114.168,265.104 114.335 C 265.104 114.503,264.923 114.569,264.700 114.484 C 264.438 114.383,264.361 114.434,264.480 114.627 C 264.606 114.830,264.485 114.879,264.103 114.779 C 263.758 114.689,263.604 114.734,263.704 114.896 C 263.808 115.063,263.653 115.092,263.281 114.974 C 262.847 114.836,262.748 114.873,262.897 115.114 C 263.045 115.354,262.917 115.406,262.416 115.310 C 261.995 115.229,261.797 115.280,261.897 115.443 C 262.002 115.612,261.761 115.646,261.225 115.539 C 260.633 115.421,260.444 115.459,260.574 115.670 C 260.705 115.881,260.483 115.922,259.800 115.811 C 259.144 115.705,258.898 115.745,259.018 115.939 C 259.138 116.134,258.818 116.180,257.986 116.086 C 257.196 115.997,256.837 116.043,256.946 116.218 C 257.054 116.393,256.737 116.435,256.029 116.340 C 255.320 116.245,255.005 116.288,255.114 116.464 C 255.220 116.636,254.940 116.692,254.332 116.621 C 253.812 116.561,253.385 116.618,253.385 116.749 C 253.385 116.880,253.092 116.932,252.734 116.863 C 252.376 116.795,252.083 116.853,252.083 116.994 C 252.083 117.134,251.849 117.187,251.563 117.112 C 251.276 117.037,251.042 117.095,251.042 117.240 C 251.042 117.385,250.866 117.436,250.651 117.354 C 250.436 117.271,250.260 117.330,250.260 117.484 C 250.260 117.638,250.085 117.697,249.870 117.614 C 249.655 117.532,249.479 117.590,249.479 117.744 C 249.479 117.898,249.297 117.955,249.075 117.869 C 248.811 117.768,248.736 117.819,248.857 118.016 C 248.983 118.219,248.898 118.262,248.597 118.146 C 248.331 118.044,248.215 118.079,248.309 118.232 C 248.448 118.456,247.916 118.613,247.331 118.520 C 247.223 118.503,247.135 118.604,247.135 118.743 C 247.135 119.095,245.686 119.813,245.434 119.586 C 245.321 119.484,245.306 119.535,245.399 119.699 C 245.546 119.955,245.050 120.347,244.488 120.420 C 244.392 120.433,244.217 120.549,244.097 120.680 C 243.969 120.820,244.040 120.835,244.271 120.716 C 244.486 120.606,244.332 120.793,243.930 121.131 C 243.527 121.470,242.960 122.039,242.670 122.397 C 242.380 122.754,242.230 122.871,242.337 122.656 C 242.451 122.426,242.434 122.355,242.294 122.483 C 242.164 122.602,242.047 122.778,242.035 122.873 C 241.968 123.390,241.581 123.936,241.373 123.807 C 241.241 123.726,241.150 123.756,241.170 123.874 C 241.267 124.429,241.118 124.753,240.845 124.585 C 240.662 124.472,240.615 124.513,240.724 124.690 C 240.823 124.850,240.676 125.210,240.396 125.490 C 240.116 125.769,239.956 126.067,240.039 126.150 C 240.123 126.234,240.047 126.302,239.872 126.302 C 239.696 126.302,239.625 126.419,239.714 126.563 C 239.802 126.706,239.743 126.823,239.583 126.823 C 239.423 126.823,239.365 126.940,239.453 127.083 C 239.542 127.227,239.483 127.344,239.323 127.344 C 239.163 127.344,239.104 127.461,239.193 127.604 C 239.281 127.747,239.223 127.865,239.063 127.865 C 238.902 127.865,238.844 127.982,238.932 128.125 C 239.021 128.268,238.973 128.385,238.826 128.385 C 238.678 128.385,238.633 128.580,238.724 128.819 C 238.835 129.108,238.790 129.190,238.589 129.066 C 238.398 128.947,238.339 129.015,238.429 129.250 C 238.508 129.454,238.418 129.782,238.231 129.979 C 238.044 130.177,237.879 130.485,237.865 130.664 C 237.785 131.660,237.738 131.788,237.503 131.642 C 237.360 131.554,237.309 131.649,237.388 131.854 C 237.466 132.058,237.377 132.386,237.189 132.584 C 237.002 132.781,236.837 133.089,236.823 133.268 C 236.744 134.260,236.698 134.393,236.483 134.260 C 236.353 134.180,236.313 134.367,236.393 134.676 C 236.493 135.058,236.445 135.179,236.242 135.053 C 236.048 134.934,235.998 135.011,236.099 135.273 C 236.184 135.495,236.128 135.677,235.974 135.677 C 235.819 135.677,235.761 135.853,235.843 136.068 C 235.926 136.283,235.867 136.458,235.713 136.458 C 235.559 136.458,235.500 136.634,235.583 136.849 C 235.665 137.064,235.614 137.240,235.469 137.240 C 235.324 137.240,235.271 137.492,235.352 137.801 C 235.452 138.183,235.403 138.304,235.200 138.178 C 235.005 138.057,234.957 138.138,235.062 138.411 C 235.187 138.736,235.080 138.810,234.579 138.743 C 233.821 138.641,232.239 137.388,232.501 137.097 C 232.601 136.986,232.548 136.973,232.383 137.067 C 232.219 137.161,231.721 136.898,231.276 136.483 C 230.832 136.068,230.465 135.805,230.460 135.898 C 230.456 135.991,230.275 135.833,230.059 135.547 C 229.842 135.260,229.612 135.055,229.546 135.091 C 229.181 135.291,228.873 135.067,228.488 134.321 C 228.207 133.779,228.154 133.454,228.336 133.393 C 228.490 133.342,228.552 133.131,228.473 132.926 C 228.394 132.720,228.467 132.552,228.636 132.552 C 228.823 132.552,228.877 132.350,228.776 132.031 C 228.683 131.739,228.729 131.510,228.881 131.510 C 229.029 131.510,229.083 131.335,229.000 131.120 C 228.918 130.905,228.977 130.729,229.131 130.729 C 229.285 130.729,229.343 130.553,229.261 130.339 C 229.178 130.124,229.237 129.948,229.391 129.948 C 229.545 129.948,229.604 129.772,229.521 129.557 C 229.439 129.342,229.497 129.167,229.651 129.167 C 229.806 129.167,229.864 128.991,229.782 128.776 C 229.699 128.561,229.768 128.385,229.935 128.385 C 230.102 128.385,230.175 128.282,230.097 128.155 C 229.910 127.853,230.454 126.302,230.746 126.302 C 230.871 126.302,230.898 126.107,230.807 125.869 C 230.686 125.554,230.735 125.494,230.986 125.649 C 231.226 125.797,231.269 125.762,231.127 125.532 C 231.012 125.346,231.060 125.117,231.239 125.007 C 231.455 124.874,231.383 124.767,231.011 124.670 C 230.666 124.579,230.530 124.629,230.639 124.805 C 230.749 124.982,230.609 125.029,230.249 124.935 C 229.885 124.840,229.748 124.887,229.860 125.069 C 229.968 125.244,229.877 125.289,229.617 125.189 C 229.388 125.101,229.156 125.161,229.103 125.322 C 229.042 125.504,228.815 125.536,228.500 125.407 C 228.216 125.291,228.125 125.150,228.293 125.087 C 228.456 125.026,228.531 124.746,228.458 124.467 C 228.384 124.187,228.445 123.958,228.591 123.958 C 228.738 123.958,228.791 123.706,228.711 123.397 C 228.617 123.037,228.663 122.897,228.841 123.007 C 229.019 123.116,229.065 122.976,228.971 122.616 C 228.871 122.234,228.920 122.113,229.123 122.238 C 229.316 122.358,229.367 122.281,229.266 122.019 C 229.181 121.796,229.247 121.615,229.415 121.615 C 229.582 121.615,229.649 121.502,229.563 121.364 C 229.365 121.043,230.649 118.490,231.009 118.490 C 231.159 118.490,231.212 118.379,231.129 118.244 C 231.046 118.109,231.418 117.557,231.958 117.018 C 232.497 116.479,232.764 116.137,232.550 116.258 C 232.336 116.380,232.855 115.765,233.704 114.892 C 234.552 114.020,235.372 113.378,235.527 113.466 C 235.681 113.553,235.721 113.530,235.615 113.413 C 235.364 113.136,236.978 111.947,237.319 112.158 C 237.463 112.247,237.502 112.193,237.406 112.038 C 237.267 111.814,238.215 111.267,238.477 111.420 C 238.512 111.441,238.785 111.215,239.083 110.917 C 239.380 110.620,239.796 110.443,240.008 110.524 C 240.223 110.607,240.322 110.558,240.233 110.414 C 240.087 110.178,240.505 110.055,241.341 110.086 C 241.520 110.093,241.667 109.982,241.667 109.839 C 241.667 109.696,241.842 109.647,242.057 109.730 C 242.272 109.812,242.448 109.758,242.448 109.610 C 242.448 109.453,242.680 109.414,243.001 109.516 C 243.407 109.644,243.501 109.604,243.353 109.365 C 243.205 109.125,243.334 109.074,243.842 109.171 C 244.221 109.243,244.531 109.187,244.531 109.046 C 244.531 108.898,244.870 108.857,245.325 108.948 C 245.885 109.060,246.065 109.019,245.936 108.810 C 245.803 108.594,246.173 108.554,247.290 108.662 C 248.241 108.755,248.579 108.730,248.177 108.599 C 247.737 108.454,248.286 108.383,249.870 108.378 C 251.388 108.373,252.030 108.448,251.693 108.592 C 251.379 108.725,251.888 108.753,252.971 108.662 C 254.246 108.555,254.718 108.594,254.592 108.797 C 254.470 108.996,254.710 109.036,255.373 108.928 C 256.034 108.821,256.276 108.861,256.154 109.059 C 256.033 109.255,256.265 109.298,256.895 109.195 C 257.436 109.107,257.813 109.154,257.813 109.309 C 257.813 109.467,258.293 109.517,259.023 109.435 C 259.792 109.348,260.176 109.393,260.074 109.557 C 259.971 109.725,260.617 109.771,261.896 109.689 C 263.341 109.597,263.828 109.643,263.695 109.859 C 263.567 110.065,263.875 110.156,264.698 110.156 C 265.580 110.156,265.885 110.056,265.885 109.766 C 265.885 109.341,265.920 109.333,267.839 109.280 C 269.459 109.236,269.436 108.874,267.779 108.311 C 267.081 108.074,266.106 107.664,265.612 107.401 C 265.118 107.138,264.640 106.918,264.551 106.912 C 263.720 106.856,258.854 102.690,258.854 102.034 C 258.854 101.901,258.734 101.866,258.587 101.957 C 258.441 102.048,258.337 102.025,258.358 101.907 C 258.454 101.353,258.306 101.028,258.033 101.197 C 257.854 101.307,257.802 101.269,257.905 101.103 C 258.000 100.949,257.930 100.665,257.750 100.471 C 257.569 100.277,257.386 99.945,257.342 99.733 C 257.299 99.522,256.620 98.040,255.835 96.441 C 253.710 92.112,251.536 90.285,247.624 89.544 L 245.899 89.217 245.762 86.731 C 245.688 85.363,245.669 82.897,245.722 81.250 C 245.791 79.105,245.740 78.366,245.544 78.646 C 245.335 78.944,245.307 78.867,245.427 78.320 C 245.525 77.871,245.474 77.604,245.290 77.604 C 245.128 77.604,245.060 77.438,245.138 77.235 C 245.216 77.032,245.102 76.798,244.884 76.714 C 244.310 76.494,244.217 76.525,244.428 76.867 M242.909 84.872 C 242.836 86.268,242.869 87.083,242.984 86.719 C 243.113 86.315,243.187 87.128,243.179 88.863 C 243.172 90.405,243.064 91.595,242.938 91.517 C 242.812 91.439,242.708 91.513,242.708 91.682 C 242.708 91.867,242.454 91.939,242.065 91.865 C 241.676 91.790,241.486 91.845,241.583 92.002 C 241.682 92.162,241.479 92.212,241.062 92.133 C 240.640 92.052,240.442 92.103,240.543 92.266 C 240.643 92.428,240.489 92.473,240.145 92.383 C 239.784 92.289,239.644 92.336,239.754 92.513 C 239.864 92.691,239.723 92.738,239.363 92.643 C 239.054 92.563,238.860 92.591,238.932 92.707 C 239.103 92.985,237.519 93.532,237.169 93.316 C 237.021 93.224,236.975 93.272,237.068 93.422 C 237.161 93.572,237.071 93.759,236.869 93.836 C 236.499 93.978,236.198 93.514,236.198 92.802 C 236.198 92.577,236.323 92.495,236.499 92.603 C 236.674 92.712,236.729 92.675,236.630 92.515 C 236.373 92.100,236.740 90.607,237.051 90.800 C 237.207 90.896,237.241 90.839,237.133 90.663 C 236.870 90.237,237.218 89.279,237.559 89.490 C 237.721 89.590,237.766 89.543,237.665 89.380 C 237.431 89.000,238.827 86.182,239.150 86.382 C 239.289 86.468,239.322 86.407,239.222 86.246 C 238.983 85.859,239.822 84.591,240.173 84.808 C 240.325 84.902,240.368 84.852,240.271 84.695 C 240.175 84.540,240.406 84.082,240.784 83.678 C 241.162 83.273,241.310 83.177,241.113 83.464 C 240.783 83.944,240.791 83.956,241.217 83.622 C 241.471 83.422,241.618 83.197,241.542 83.122 C 241.279 82.858,242.240 82.068,242.638 82.221 C 242.975 82.350,243.019 82.780,242.909 84.872 M233.075 85.804 C 232.898 86.018,232.669 86.140,232.566 86.076 C 232.463 86.013,232.378 86.133,232.378 86.344 C 232.378 86.629,232.535 86.581,232.986 86.157 C 233.320 85.843,233.594 85.548,233.594 85.501 C 233.594 85.313,233.379 85.438,233.075 85.804 M222.145 99.339 C 221.665 99.835,221.155 100.168,221.012 100.080 C 220.860 99.985,220.835 100.053,220.953 100.244 C 221.118 100.511,223.177 98.910,223.177 98.515 C 223.177 98.324,222.962 98.497,222.145 99.339 M253.385 101.122 C 253.385 101.238,253.487 101.270,253.611 101.193 C 253.931 100.995,254.774 101.994,254.567 102.327 C 254.473 102.480,254.509 102.604,254.648 102.604 C 254.786 102.604,254.838 102.839,254.763 103.125 C 254.688 103.411,254.747 103.646,254.893 103.646 C 255.040 103.646,255.098 103.880,255.023 104.167 C 254.874 104.738,254.554 104.843,254.286 104.409 C 254.191 104.256,253.950 104.194,253.750 104.271 C 253.549 104.348,253.385 104.301,253.385 104.167 C 253.385 104.032,253.190 103.997,252.952 104.089 C 252.635 104.210,252.577 104.161,252.734 103.906 C 252.895 103.647,252.831 103.603,252.489 103.734 C 252.159 103.861,251.766 103.633,251.107 102.932 C 250.600 102.394,250.278 102.129,250.390 102.344 C 250.544 102.639,250.481 102.628,250.130 102.297 C 249.616 101.814,250.058 101.018,250.718 101.238 C 250.896 101.297,251.042 101.237,251.042 101.104 C 251.042 100.970,251.569 100.873,252.213 100.886 C 252.858 100.900,253.385 101.006,253.385 101.122 M179.106 107.220 C 179.574 107.278,180.277 107.277,180.669 107.217 C 181.060 107.158,180.677 107.110,179.818 107.112 C 178.958 107.113,178.638 107.162,179.106 107.220 M139.214 119.474 L 138.714 120.182 139.409 119.551 C 140.140 118.888,140.230 118.745,139.909 118.758 C 139.801 118.763,139.489 119.085,139.214 119.474 M207.161 129.178 C 206.827 129.329,207.318 129.357,208.529 129.257 C 209.756 129.154,210.417 129.194,210.417 129.369 C 210.417 129.534,210.834 129.582,211.498 129.493 C 212.269 129.389,212.527 129.433,212.397 129.644 C 212.267 129.853,212.458 129.891,213.048 129.773 C 213.640 129.655,213.830 129.693,213.699 129.903 C 213.569 130.114,213.758 130.152,214.350 130.034 C 214.886 129.927,215.127 129.961,215.022 130.130 C 214.922 130.293,215.120 130.344,215.541 130.263 C 215.979 130.180,216.163 130.231,216.054 130.407 C 215.948 130.577,216.081 130.629,216.406 130.544 C 216.693 130.469,216.927 130.528,216.927 130.674 C 216.927 130.821,217.180 130.875,217.489 130.794 C 217.848 130.700,217.989 130.747,217.879 130.924 C 217.769 131.102,217.909 131.149,218.270 131.054 C 218.652 130.955,218.772 131.003,218.647 131.206 C 218.527 131.399,218.605 131.450,218.867 131.349 C 219.089 131.264,219.271 131.311,219.271 131.454 C 219.271 131.596,219.417 131.708,219.596 131.701 C 220.433 131.670,220.850 131.793,220.705 132.028 C 220.617 132.171,220.711 132.222,220.916 132.143 C 221.120 132.065,221.449 132.155,221.646 132.342 C 221.844 132.529,222.152 132.694,222.331 132.708 C 223.098 132.770,223.198 132.828,223.022 133.113 C 222.913 133.290,222.950 133.343,223.113 133.243 C 223.478 133.017,224.256 133.322,224.074 133.618 C 223.995 133.745,224.112 133.779,224.333 133.694 C 224.570 133.603,224.801 133.711,224.895 133.956 C 224.983 134.185,225.159 134.307,225.287 134.229 C 225.414 134.150,225.831 134.414,226.213 134.816 C 226.595 135.218,226.812 135.382,226.695 135.181 C 226.390 134.657,228.918 136.388,229.651 137.206 C 229.989 137.582,230.170 137.715,230.054 137.500 C 229.697 136.842,232.326 139.159,234.387 141.318 C 236.320 143.343,238.227 145.777,238.069 146.016 C 238.023 146.085,238.199 146.303,238.459 146.500 C 238.719 146.697,238.844 146.862,238.737 146.867 C 238.630 146.871,238.780 147.114,239.072 147.405 C 239.364 147.697,239.521 148.067,239.422 148.227 C 239.317 148.397,239.360 148.446,239.524 148.344 C 239.755 148.201,240.177 148.931,240.182 149.479 C 240.182 149.551,240.359 149.738,240.574 149.895 C 240.789 150.053,240.882 150.316,240.780 150.481 C 240.678 150.646,240.725 150.781,240.885 150.781 C 241.046 150.781,241.104 150.898,241.016 151.042 C 240.927 151.185,240.986 151.302,241.146 151.302 C 241.306 151.302,241.365 151.419,241.276 151.563 C 241.188 151.706,241.252 151.823,241.419 151.823 C 241.586 151.823,241.653 152.004,241.567 152.227 C 241.469 152.484,241.518 152.566,241.703 152.451 C 241.878 152.343,241.947 152.415,241.875 152.631 C 241.809 152.828,241.920 153.155,242.122 153.357 C 242.323 153.558,242.432 153.940,242.362 154.205 C 242.293 154.471,242.355 154.688,242.500 154.688 C 242.645 154.688,242.697 154.863,242.614 155.078 C 242.532 155.293,242.591 155.469,242.747 155.469 C 242.908 155.469,242.976 155.749,242.905 156.120 C 242.837 156.478,242.892 156.771,243.028 156.771 C 243.173 156.771,243.200 157.213,243.093 157.845 C 242.965 158.605,242.997 158.868,243.201 158.742 C 243.390 158.624,243.490 158.861,243.490 159.427 C 243.490 160.009,243.320 160.398,242.969 160.617 C 242.629 160.829,242.448 160.845,242.448 160.664 C 242.448 160.511,242.331 160.458,242.188 160.547 C 242.044 160.635,241.927 160.577,241.927 160.417 C 241.927 160.257,241.820 160.191,241.690 160.272 C 241.327 160.496,240.606 160.138,240.797 159.828 C 240.890 159.678,240.843 159.631,240.692 159.724 C 240.342 159.941,238.730 159.274,238.985 159.018 C 239.091 158.913,238.975 158.904,238.729 158.998 C 238.483 159.093,238.281 159.054,238.281 158.911 C 238.281 158.768,238.135 158.657,237.956 158.664 C 237.139 158.694,236.700 158.574,236.834 158.358 C 236.914 158.228,236.745 158.183,236.459 158.258 C 236.172 158.333,235.938 158.274,235.938 158.128 C 235.938 157.981,235.685 157.927,235.376 158.008 C 235.016 158.102,234.876 158.055,234.986 157.878 C 235.094 157.703,234.964 157.651,234.636 157.737 C 234.349 157.812,234.115 157.759,234.115 157.619 C 234.115 157.478,233.804 157.423,233.425 157.496 C 233.002 157.577,232.797 157.527,232.896 157.367 C 232.995 157.208,232.793 157.157,232.375 157.237 C 231.910 157.326,231.751 157.274,231.875 157.073 C 232.003 156.866,231.810 156.828,231.222 156.946 C 230.630 157.064,230.441 157.026,230.571 156.815 C 230.701 156.606,230.521 156.565,229.961 156.677 C 229.524 156.764,229.167 156.728,229.167 156.595 C 229.167 156.463,228.741 156.404,228.220 156.465 C 227.612 156.536,227.332 156.480,227.438 156.307 C 227.547 156.132,227.232 156.089,226.523 156.184 C 225.822 156.278,225.499 156.236,225.605 156.064 C 225.712 155.891,225.119 155.833,223.887 155.897 C 222.852 155.951,222.206 155.906,222.451 155.797 C 222.696 155.688,221.696 155.593,220.228 155.586 C 217.895 155.575,217.560 155.629,217.560 156.013 C 217.560 156.289,217.699 156.398,217.937 156.306 C 218.178 156.214,218.247 156.271,218.128 156.463 C 218.012 156.652,218.075 156.714,218.298 156.628 C 218.493 156.553,218.953 156.760,219.318 157.087 C 219.683 157.414,220.136 157.719,220.325 157.763 C 221.694 158.086,224.125 160.903,223.414 161.342 C 223.284 161.423,223.177 161.381,223.177 161.249 C 223.177 161.118,222.867 161.069,222.487 161.142 C 222.031 161.229,221.857 161.178,221.972 160.991 C 222.092 160.797,221.845 160.757,221.189 160.863 C 220.596 160.960,220.291 160.922,220.388 160.765 C 220.482 160.613,220.236 160.556,219.778 160.624 C 219.356 160.686,219.010 160.617,219.010 160.471 C 219.010 160.313,218.564 160.257,217.904 160.332 C 217.170 160.416,216.914 160.376,217.144 160.213 C 217.372 160.053,217.020 160.013,216.130 160.099 C 215.363 160.173,214.830 160.128,214.911 159.998 C 214.993 159.864,212.363 159.766,208.724 159.766 C 205.242 159.766,202.528 159.863,202.694 159.981 C 202.859 160.100,202.241 160.138,201.320 160.067 C 200.167 159.977,199.761 160.017,200.018 160.195 C 200.278 160.376,199.982 160.421,199.032 160.344 C 198.285 160.284,197.735 160.334,197.811 160.456 C 197.967 160.709,196.603 160.756,195.985 160.519 C 195.758 160.432,195.573 160.273,195.573 160.166 C 195.573 159.881,198.712 157.726,199.127 157.726 C 199.321 157.726,199.479 157.630,199.479 157.514 C 199.479 157.196,201.542 156.207,201.832 156.386 C 201.970 156.471,202.083 156.405,202.083 156.238 C 202.083 156.070,202.265 156.003,202.487 156.089 C 202.710 156.174,202.828 156.141,202.750 156.014 C 202.569 155.723,203.833 155.393,204.219 155.631 C 204.406 155.747,204.433 155.689,204.296 155.468 C 204.139 155.213,204.228 155.164,204.647 155.273 C 204.956 155.354,205.208 155.300,205.208 155.154 C 205.208 155.007,205.443 154.948,205.729 155.023 C 206.016 155.098,206.250 155.041,206.250 154.895 C 206.250 154.741,206.530 154.701,206.923 154.800 C 207.949 155.057,207.481 154.605,206.007 153.914 C 205.281 153.574,204.688 153.203,204.688 153.089 C 204.688 152.974,204.492 152.956,204.254 153.047 C 203.965 153.158,203.883 153.113,204.007 152.912 C 204.129 152.715,204.054 152.664,203.790 152.765 C 203.567 152.851,203.385 152.794,203.385 152.640 C 203.385 152.486,203.210 152.428,202.995 152.510 C 202.780 152.592,202.604 152.541,202.604 152.396 C 202.604 152.251,202.351 152.198,202.043 152.279 C 201.698 152.369,201.544 152.324,201.644 152.162 C 201.744 152.000,201.558 151.946,201.164 152.021 C 200.810 152.089,200.521 152.037,200.521 151.906 C 200.521 151.774,200.095 151.717,199.574 151.778 C 199.013 151.843,198.689 151.787,198.780 151.640 C 198.873 151.490,198.346 151.426,197.449 151.478 C 196.382 151.541,196.110 151.497,196.484 151.322 C 196.874 151.140,196.595 151.074,195.378 151.060 C 194.275 151.048,193.750 151.142,193.750 151.354 C 193.750 151.587,193.675 151.591,193.455 151.372 C 193.293 151.209,193.237 150.876,193.331 150.631 C 193.425 150.386,193.562 150.246,193.635 150.319 C 193.708 150.392,194.104 150.139,194.514 149.756 C 195.534 148.803,198.369 147.323,198.738 147.551 C 198.938 147.675,198.967 147.621,198.826 147.392 C 198.671 147.141,198.731 147.092,199.046 147.213 C 199.284 147.305,199.479 147.254,199.479 147.099 C 199.479 146.945,199.661 146.889,199.883 146.974 C 200.145 147.075,200.223 147.024,200.103 146.831 C 199.978 146.628,200.098 146.580,200.480 146.679 C 200.841 146.774,200.981 146.727,200.871 146.549 C 200.761 146.372,200.902 146.325,201.261 146.419 C 201.570 146.500,201.823 146.446,201.823 146.299 C 201.823 146.153,202.057 146.094,202.344 146.169 C 202.630 146.244,202.865 146.185,202.865 146.037 C 202.865 145.876,203.184 145.832,203.659 145.927 C 204.216 146.038,204.398 145.998,204.270 145.791 C 204.138 145.577,204.475 145.544,205.495 145.670 C 206.474 145.792,206.783 145.766,206.510 145.583 C 206.295 145.439,206.254 145.319,206.417 145.316 C 206.581 145.314,206.782 145.138,206.864 144.925 C 206.946 144.712,206.929 144.564,206.827 144.596 C 206.521 144.693,204.948 143.965,204.948 143.727 C 204.948 143.605,204.753 143.581,204.515 143.672 C 204.276 143.764,204.148 143.731,204.229 143.599 C 204.311 143.467,204.070 143.341,203.694 143.318 C 203.318 143.296,202.972 143.162,202.925 143.020 C 202.878 142.879,202.593 142.828,202.291 142.907 C 201.968 142.992,201.806 142.946,201.899 142.796 C 201.993 142.643,201.736 142.589,201.251 142.660 C 200.809 142.725,200.511 142.675,200.590 142.548 C 200.670 142.418,199.658 142.357,198.276 142.408 C 195.353 142.516,194.915 142.408,195.306 141.679 C 195.670 140.999,197.916 139.292,198.209 139.473 C 198.335 139.550,198.438 139.499,198.438 139.357 C 198.438 139.039,201.278 137.389,201.479 137.590 C 201.559 137.670,201.801 137.559,202.018 137.342 C 202.234 137.126,202.572 137.011,202.768 137.086 C 202.964 137.162,203.125 137.097,203.125 136.943 C 203.125 136.789,203.301 136.730,203.516 136.813 C 203.730 136.895,203.906 136.837,203.906 136.683 C 203.906 136.529,204.088 136.472,204.310 136.558 C 204.533 136.643,204.651 136.610,204.573 136.484 C 204.394 136.195,206.157 135.849,206.555 136.095 C 206.748 136.215,206.779 136.161,206.644 135.943 C 206.487 135.689,206.632 135.636,207.241 135.725 C 207.724 135.796,207.983 135.742,207.888 135.589 C 207.789 135.429,208.297 135.393,209.269 135.493 C 210.295 135.598,210.634 135.571,210.286 135.411 C 209.934 135.249,210.532 135.190,212.142 135.229 C 213.833 135.270,214.485 135.201,214.404 134.990 C 214.341 134.827,214.044 134.757,213.745 134.835 C 213.364 134.935,213.258 134.884,213.393 134.666 C 213.533 134.438,213.393 134.402,212.874 134.533 C 212.375 134.658,212.216 134.623,212.344 134.417 C 212.472 134.209,212.279 134.172,211.691 134.289 C 211.117 134.404,210.912 134.367,211.033 134.171 C 211.154 133.974,210.923 133.932,210.292 134.034 C 209.788 134.116,209.375 134.074,209.375 133.941 C 209.375 133.808,208.584 133.734,207.617 133.777 C 206.644 133.819,206.065 133.765,206.320 133.654 C 206.573 133.544,205.383 133.456,203.675 133.459 C 201.968 133.461,200.706 133.560,200.871 133.678 C 201.037 133.796,200.310 133.840,199.256 133.776 C 198.026 133.701,197.467 133.746,197.694 133.902 C 197.931 134.066,197.691 134.117,196.962 134.060 C 196.361 134.013,195.942 134.080,196.022 134.210 C 196.102 134.339,195.806 134.392,195.363 134.327 C 194.891 134.258,194.622 134.311,194.712 134.457 C 194.802 134.603,194.533 134.657,194.061 134.587 C 193.589 134.518,193.320 134.572,193.410 134.718 C 193.500 134.863,193.231 134.917,192.759 134.848 C 192.281 134.778,192.018 134.832,192.110 134.981 C 192.201 135.129,191.985 135.178,191.583 135.101 C 191.166 135.022,190.964 135.072,191.062 135.232 C 191.161 135.391,190.959 135.442,190.541 135.362 C 190.124 135.282,189.922 135.333,190.021 135.492 C 190.119 135.651,189.917 135.702,189.500 135.622 C 189.077 135.542,188.880 135.592,188.981 135.756 C 189.081 135.917,188.926 135.963,188.582 135.873 C 188.226 135.779,188.082 135.826,188.189 136.000 C 188.298 136.175,188.114 136.227,187.677 136.143 C 187.254 136.062,187.057 136.113,187.158 136.277 C 187.258 136.438,187.104 136.483,186.759 136.393 C 186.399 136.299,186.259 136.346,186.368 136.524 C 186.478 136.701,186.338 136.748,185.978 136.654 C 185.618 136.560,185.477 136.606,185.587 136.784 C 185.697 136.962,185.557 137.008,185.197 136.914 C 184.888 136.834,184.635 136.887,184.635 137.034 C 184.635 137.180,184.401 137.239,184.114 137.164 C 183.786 137.078,183.656 137.130,183.764 137.305 C 183.874 137.482,183.734 137.529,183.374 137.435 C 183.014 137.341,182.873 137.388,182.983 137.565 C 183.093 137.743,182.953 137.790,182.593 137.696 C 182.284 137.615,182.031 137.669,182.031 137.815 C 182.031 137.962,181.797 138.020,181.510 137.945 C 181.185 137.860,181.053 137.912,181.158 138.083 C 181.267 138.259,181.083 138.310,180.646 138.226 C 180.228 138.147,180.026 138.197,180.125 138.357 C 180.223 138.516,180.021 138.567,179.604 138.487 C 179.181 138.406,178.984 138.457,179.085 138.620 C 179.185 138.782,179.031 138.827,178.686 138.737 C 178.330 138.644,178.186 138.690,178.294 138.864 C 178.402 139.040,178.218 139.091,177.781 139.008 C 177.364 138.928,177.162 138.978,177.260 139.138 C 177.359 139.297,177.157 139.348,176.739 139.268 C 176.317 139.187,176.120 139.238,176.220 139.401 C 176.325 139.570,176.084 139.605,175.548 139.498 C 174.956 139.379,174.767 139.417,174.897 139.628 C 175.028 139.839,174.838 139.877,174.246 139.758 C 173.654 139.640,173.465 139.678,173.595 139.888 C 173.727 140.101,173.491 140.139,172.762 140.022 C 172.016 139.902,171.849 139.931,172.135 140.130 C 172.421 140.329,172.152 140.372,171.137 140.289 C 170.373 140.227,169.882 140.260,170.047 140.361 C 170.453 140.612,167.351 140.885,164.323 140.865 C 162.717 140.855,162.032 140.771,162.370 140.628 C 162.693 140.490,162.356 140.463,161.483 140.557 C 160.595 140.652,160.133 140.613,160.232 140.453 C 160.327 140.300,160.069 140.245,159.585 140.316 C 159.093 140.389,158.842 140.334,158.940 140.177 C 159.036 140.021,158.830 139.970,158.417 140.049 C 157.979 140.133,157.796 140.082,157.904 139.906 C 158.012 139.732,157.868 139.686,157.512 139.779 C 157.152 139.873,157.011 139.826,157.121 139.649 C 157.231 139.471,157.091 139.424,156.730 139.518 C 156.312 139.628,156.222 139.578,156.380 139.324 C 156.513 139.108,156.489 139.045,156.314 139.153 C 155.921 139.396,155.177 139.063,155.380 138.735 C 155.479 138.575,155.424 138.538,155.249 138.647 C 154.927 138.846,153.812 138.202,154.055 137.958 C 154.136 137.878,153.988 137.830,153.728 137.852 C 153.432 137.876,153.288 137.745,153.342 137.500 C 153.390 137.285,153.339 137.199,153.229 137.309 C 152.978 137.560,151.272 135.937,151.462 135.629 C 151.538 135.505,151.446 135.436,151.256 135.475 C 151.067 135.515,150.927 135.346,150.946 135.101 C 150.965 134.856,150.848 134.681,150.686 134.711 C 150.523 134.741,150.407 134.562,150.426 134.313 C 150.446 134.064,150.370 133.916,150.258 133.986 C 150.146 134.055,149.987 133.936,149.905 133.722 C 149.736 133.281,149.954 132.552,150.256 132.552 C 150.603 132.552,151.046 133.241,150.844 133.464 C 150.738 133.581,150.776 133.607,150.928 133.520 C 151.293 133.313,152.666 134.221,152.411 134.501 C 152.302 134.621,152.349 134.641,152.516 134.546 C 152.906 134.323,153.687 134.619,153.501 134.920 C 153.422 135.047,153.559 135.073,153.805 134.979 C 154.053 134.884,154.186 134.914,154.104 135.047 C 154.023 135.179,154.208 135.299,154.517 135.315 C 154.826 135.331,156.016 135.613,157.161 135.941 C 159.283 136.550,169.467 136.941,168.668 136.383 C 168.490 136.259,168.820 136.203,169.444 136.252 C 170.041 136.299,170.464 136.233,170.385 136.105 C 170.306 135.977,170.659 135.921,171.170 135.981 C 171.700 136.043,172.035 135.986,171.950 135.848 C 171.866 135.712,172.150 135.658,172.606 135.725 C 173.077 135.794,173.347 135.741,173.257 135.595 C 173.167 135.449,173.436 135.396,173.908 135.465 C 174.385 135.535,174.649 135.481,174.557 135.332 C 174.466 135.184,174.682 135.134,175.084 135.211 C 175.501 135.291,175.703 135.240,175.604 135.081 C 175.506 134.921,175.708 134.871,176.125 134.951 C 176.500 135.022,176.751 134.990,176.683 134.879 C 176.511 134.602,178.039 134.291,178.419 134.526 C 178.624 134.653,178.657 134.603,178.517 134.377 C 178.360 134.123,178.477 134.071,178.990 134.169 C 179.412 134.250,179.610 134.199,179.509 134.036 C 179.409 133.874,179.563 133.829,179.907 133.919 C 180.216 134.000,180.469 133.946,180.469 133.799 C 180.469 133.653,180.703 133.594,180.990 133.669 C 181.318 133.755,181.448 133.703,181.340 133.528 C 181.230 133.351,181.370 133.304,181.730 133.398 C 182.091 133.492,182.231 133.446,182.121 133.268 C 182.011 133.090,182.152 133.044,182.511 133.138 C 182.820 133.218,183.073 133.165,183.073 133.018 C 183.073 132.872,183.307 132.813,183.594 132.888 C 183.881 132.963,184.058 132.932,183.989 132.820 C 183.826 132.556,185.383 132.240,185.744 132.463 C 185.916 132.570,185.939 132.505,185.807 132.291 C 185.650 132.036,185.739 131.987,186.157 132.096 C 186.466 132.177,186.719 132.123,186.719 131.976 C 186.719 131.830,186.953 131.771,187.240 131.846 C 187.568 131.932,187.698 131.880,187.590 131.706 C 187.480 131.528,187.620 131.481,187.980 131.575 C 188.289 131.656,188.542 131.602,188.542 131.456 C 188.542 131.309,188.776 131.251,189.063 131.326 C 189.388 131.410,189.520 131.359,189.415 131.188 C 189.306 131.012,189.490 130.961,189.927 131.044 C 190.345 131.124,190.547 131.074,190.448 130.914 C 190.350 130.755,190.552 130.704,190.969 130.784 C 191.386 130.864,191.588 130.813,191.490 130.654 C 191.391 130.494,191.593 130.444,192.011 130.524 C 192.433 130.604,192.630 130.553,192.530 130.390 C 192.425 130.222,192.666 130.187,193.202 130.294 C 193.794 130.412,193.983 130.375,193.853 130.164 C 193.722 129.953,193.912 129.915,194.504 130.034 C 195.096 130.152,195.285 130.114,195.155 129.903 C 195.024 129.692,195.247 129.651,195.929 129.762 C 196.586 129.868,196.832 129.828,196.712 129.634 C 196.591 129.438,196.911 129.393,197.743 129.487 C 198.533 129.576,198.892 129.530,198.784 129.355 C 198.673 129.176,199.298 129.138,200.676 129.240 C 201.907 129.331,202.473 129.305,202.083 129.175 C 201.662 129.035,202.534 128.955,204.557 128.951 C 206.624 128.945,207.506 129.023,207.161 129.178 M197.201 142.107 C 197.451 142.172,197.861 142.172,198.112 142.107 C 198.363 142.041,198.158 141.988,197.656 141.988 C 197.155 141.988,196.950 142.041,197.201 142.107 M132.403 152.592 C 132.403 152.871,132.455 153.048,132.519 152.985 C 132.582 152.921,132.812 153.015,133.029 153.192 C 133.315 153.426,133.296 153.318,132.958 152.799 C 132.403 151.946,132.403 151.946,132.403 152.592 M133.854 154.963 C 133.854 155.115,133.958 155.175,134.085 155.096 C 134.355 154.930,134.952 155.565,134.763 155.818 C 134.693 155.912,134.717 155.928,134.816 155.852 C 134.915 155.777,135.706 156.392,136.574 157.219 C 137.728 158.319,137.628 158.181,136.204 156.705 C 134.304 154.735,133.854 154.402,133.854 154.963 M207.617 159.566 C 208.298 159.620,209.411 159.620,210.091 159.566 C 210.771 159.513,210.215 159.469,208.854 159.469 C 207.493 159.469,206.937 159.513,207.617 159.566 " stroke="none" fill="#e17522" fill-rule="evenodd"></path><path id="path1" d="M241.146 83.732 C 239.204 86.077,235.983 92.840,236.541 93.399 C 236.595 93.453,237.315 93.197,238.141 92.832 C 238.968 92.466,240.345 92.004,241.202 91.804 C 242.060 91.604,242.812 91.390,242.873 91.328 C 242.935 91.266,242.879 89.296,242.749 86.949 C 242.618 84.602,242.563 82.594,242.625 82.487 C 243.034 81.785,242.125 82.550,241.146 83.732 M244.531 109.364 C 236.726 111.031,230.057 117.340,228.771 124.274 L 228.592 125.240 230.081 124.716 C 231.801 124.112,231.947 124.161,231.431 125.171 C 230.654 126.694,228.215 134.067,228.435 134.231 C 228.479 134.264,229.102 134.680,229.818 135.155 C 230.534 135.631,231.919 136.658,232.895 137.437 C 233.872 138.216,234.692 138.812,234.718 138.763 C 234.744 138.713,235.222 137.324,235.779 135.677 C 240.536 121.623,244.512 117.831,256.380 116.033 C 261.933 115.191,263.730 114.759,265.602 113.814 C 267.760 112.724,267.831 112.565,266.706 111.305 L 265.755 110.240 262.891 110.057 C 261.315 109.956,258.413 109.644,256.442 109.364 C 251.955 108.726,247.518 108.726,244.531 109.364 M198.085 129.703 C 195.225 130.035,191.422 130.919,185.286 132.678 C 171.787 136.547,170.254 136.841,163.542 136.846 C 157.315 136.850,154.304 136.082,151.090 133.669 C 149.967 132.826,149.855 132.993,150.694 134.260 C 155.847 142.043,165.549 142.457,187.760 135.839 C 197.643 132.895,206.814 132.551,214.779 134.826 C 217.970 135.737,217.846 135.823,213.477 135.719 C 206.530 135.554,200.159 137.555,196.159 141.158 C 195.073 142.135,195.052 142.109,196.826 141.981 C 200.047 141.748,204.864 143.070,207.299 144.855 L 208.456 145.703 207.288 145.765 C 202.431 146.022,197.112 147.885,194.141 150.370 L 193.359 151.023 195.182 151.033 C 199.012 151.055,202.350 151.833,206.055 153.565 C 208.381 154.653,208.484 154.821,206.960 155.030 C 204.134 155.417,199.701 157.343,197.076 159.325 C 195.497 160.517,195.455 160.504,199.248 160.025 C 206.720 159.082,214.968 159.307,221.424 160.631 L 223.707 161.099 222.726 160.073 C 221.590 158.886,218.344 156.680,217.040 156.208 C 215.465 155.639,216.064 155.469,219.648 155.469 C 227.063 155.469,235.741 157.257,241.233 159.918 C 242.095 160.335,242.838 160.677,242.885 160.677 C 243.579 160.677,242.593 155.171,241.393 152.344 C 234.594 136.321,217.599 127.437,198.085 129.703 " stroke="none" fill="#fbf5e9" fill-rule="evenodd"></path><path id="path2" d="M250.456 101.344 C 249.706 101.618,249.481 102.083,250.098 102.083 C 250.296 102.083,250.611 102.268,250.798 102.494 C 251.414 103.236,254.948 104.763,254.948 104.287 C 254.948 101.753,252.939 100.437,250.456 101.344 M266.322 109.329 C 265.617 109.465,265.906 110.447,267.005 111.654 C 268.455 113.245,271.214 111.461,270.077 109.667 C 269.863 109.330,267.447 109.112,266.322 109.329 " stroke="none" fill="#332a2d" fill-rule="evenodd"></path><path id="path3" d="M245.639 82.682 C 245.641 83.255,245.695 83.459,245.757 83.135 C 245.819 82.811,245.817 82.342,245.752 82.093 C 245.687 81.844,245.636 82.109,245.639 82.682 M235.275 83.659 C 232.970 86.066,231.914 87.240,232.054 87.240 C 232.122 87.240,233.267 86.068,234.597 84.635 C 235.927 83.203,236.975 82.031,236.925 82.031 C 236.875 82.031,236.132 82.764,235.275 83.659 M240.900 83.522 C 238.934 85.729,236.129 91.563,236.216 93.269 C 236.225 93.462,236.498 92.741,236.823 91.667 C 237.768 88.532,239.568 85.287,241.617 83.018 C 242.107 82.475,242.446 82.031,242.369 82.031 C 242.292 82.031,241.631 82.702,240.900 83.522 M242.796 84.115 C 242.796 85.189,242.842 85.628,242.898 85.091 C 242.954 84.554,242.954 83.675,242.898 83.138 C 242.842 82.601,242.796 83.040,242.796 84.115 M243.064 88.672 C 243.065 90.104,243.108 90.657,243.161 89.900 C 243.214 89.143,243.213 87.971,243.160 87.296 C 243.106 86.620,243.063 87.240,243.064 88.672 M231.103 88.346 L 230.339 89.193 231.185 88.428 C 231.650 88.007,232.031 87.626,232.031 87.581 C 232.031 87.380,231.816 87.557,231.103 88.346 M229.314 90.560 C 228.751 91.279,228.706 91.400,229.143 91.019 C 229.665 90.562,230.354 89.583,230.152 89.583 C 230.112 89.583,229.734 90.023,229.314 90.560 M239.974 92.285 C 238.205 92.862,236.458 93.651,236.458 93.873 C 236.458 93.933,237.114 93.692,237.916 93.337 C 238.717 92.983,240.153 92.470,241.106 92.198 C 242.059 91.926,242.604 91.701,242.318 91.697 C 242.031 91.693,240.977 91.958,239.974 92.285 M222.135 99.609 C 221.503 100.254,221.044 100.781,221.116 100.781 C 221.187 100.781,221.763 100.254,222.396 99.609 C 223.028 98.965,223.487 98.438,223.416 98.438 C 223.344 98.438,222.768 98.965,222.135 99.609 M177.539 107.486 C 179.007 107.532,181.410 107.532,182.878 107.486 C 184.346 107.439,183.145 107.402,180.208 107.402 C 177.272 107.402,176.071 107.439,177.539 107.486 M172.204 107.739 C 172.600 107.799,173.186 107.797,173.506 107.735 C 173.826 107.674,173.503 107.625,172.786 107.627 C 172.070 107.629,171.808 107.679,172.204 107.739 M190.303 107.736 C 190.626 107.799,191.095 107.796,191.344 107.731 C 191.593 107.666,191.328 107.615,190.755 107.618 C 190.182 107.621,189.979 107.674,190.303 107.736 M169.206 107.996 C 169.528 108.058,170.055 108.058,170.378 107.996 C 170.700 107.934,170.436 107.883,169.792 107.883 C 169.147 107.883,168.883 107.934,169.206 107.996 M197.201 108.006 C 198.311 108.055,200.127 108.055,201.237 108.006 C 202.347 107.957,201.439 107.917,199.219 107.917 C 196.999 107.917,196.090 107.957,197.201 108.006 M167.253 108.252 C 167.503 108.318,167.913 108.318,168.164 108.252 C 168.415 108.187,168.210 108.133,167.708 108.133 C 167.207 108.133,167.002 108.187,167.253 108.252 M246.745 108.591 C 246.172 108.692,247.109 108.717,248.828 108.648 C 250.547 108.578,252.002 108.479,252.062 108.427 C 252.251 108.264,247.832 108.399,246.745 108.591 M252.933 108.781 C 253.329 108.840,253.915 108.839,254.235 108.777 C 254.556 108.715,254.232 108.666,253.516 108.668 C 252.799 108.670,252.537 108.721,252.933 108.781 M258.792 109.559 C 259.116 109.621,259.585 109.619,259.834 109.554 C 260.083 109.489,259.818 109.438,259.245 109.441 C 258.672 109.444,258.468 109.497,258.792 109.559 M261.393 109.824 C 261.859 109.882,262.620 109.882,263.086 109.824 C 263.551 109.766,263.171 109.719,262.240 109.719 C 261.309 109.719,260.928 109.766,261.393 109.824 M239.909 110.410 C 239.300 110.686,238.802 110.970,238.802 111.040 C 238.802 111.159,241.139 110.210,241.385 109.992 C 241.666 109.742,240.907 109.957,239.909 110.410 M236.814 112.223 C 235.974 112.787,234.583 113.983,233.724 114.880 L 232.161 116.512 234.152 114.664 C 235.246 113.647,236.682 112.499,237.342 112.112 C 238.406 111.488,238.755 111.198,238.441 111.198 C 238.386 111.198,237.653 111.659,236.814 112.223 M150.781 112.630 C 150.423 112.835,150.247 113.002,150.391 113.002 C 150.534 113.002,150.944 112.835,151.302 112.630 C 151.660 112.426,151.836 112.258,151.693 112.258 C 151.549 112.258,151.139 112.426,150.781 112.630 M145.958 115.006 C 144.074 116.097,142.586 117.137,143.880 116.457 C 145.607 115.550,148.514 113.802,148.296 113.802 C 148.153 113.802,147.101 114.344,145.958 115.006 M263.932 114.723 C 263.281 115.036,263.259 115.073,263.802 114.940 C 264.540 114.760,265.369 114.337,264.974 114.343 C 264.831 114.345,264.362 114.516,263.932 114.723 M261.458 115.365 C 260.943 115.530,260.916 115.573,261.328 115.573 C 261.615 115.573,262.142 115.479,262.500 115.365 C 263.016 115.199,263.043 115.156,262.630 115.156 C 262.344 115.156,261.816 115.250,261.458 115.365 M257.750 116.070 C 258.074 116.132,258.543 116.130,258.792 116.064 C 259.041 115.999,258.776 115.948,258.203 115.951 C 257.630 115.954,257.426 116.007,257.750 116.070 M255.794 116.325 C 256.045 116.391,256.455 116.391,256.706 116.325 C 256.956 116.260,256.751 116.206,256.250 116.206 C 255.749 116.206,255.544 116.260,255.794 116.325 M253.971 116.586 C 254.222 116.651,254.632 116.651,254.883 116.586 C 255.133 116.520,254.928 116.467,254.427 116.467 C 253.926 116.467,253.721 116.520,253.971 116.586 M141.862 117.587 C 141.182 118.086,140.625 118.559,140.625 118.639 C 140.625 118.806,142.952 117.165,143.136 116.868 C 143.342 116.533,143.152 116.641,141.862 117.587 M231.510 117.448 C 231.204 117.878,231.013 118.229,231.084 118.229 C 231.156 118.229,231.465 117.878,231.771 117.448 C 232.077 117.018,232.269 116.667,232.197 116.667 C 232.125 116.667,231.816 117.018,231.510 117.448 M248.242 118.121 C 247.777 118.325,247.396 118.551,247.396 118.624 C 247.396 118.760,249.223 118.052,249.444 117.830 C 249.666 117.609,249.102 117.745,248.242 118.121 M230.065 119.818 C 229.695 120.548,229.436 121.189,229.489 121.243 C 229.542 121.296,229.901 120.698,230.285 119.915 C 230.669 119.131,230.929 118.490,230.861 118.490 C 230.793 118.490,230.435 119.087,230.065 119.818 M137.822 121.029 C 134.655 124.127,130.926 129.391,131.002 130.657 C 131.008 130.768,131.313 130.273,131.679 129.557 C 133.033 126.907,135.356 123.795,137.838 121.307 C 139.242 119.901,140.336 118.750,140.270 118.750 C 140.204 118.750,139.102 119.775,137.822 121.029 M246.094 119.307 C 243.924 120.630,241.827 122.817,240.509 125.130 C 240.069 125.904,240.069 125.905,240.540 125.270 C 242.784 122.240,243.444 121.500,244.769 120.520 C 245.603 119.905,246.505 119.261,246.775 119.091 C 247.045 118.920,247.207 118.774,247.135 118.766 C 247.064 118.758,246.595 119.002,246.094 119.307 M228.936 122.421 C 228.777 122.880,228.654 123.384,228.664 123.541 C 228.674 123.699,228.851 123.370,229.056 122.809 C 229.261 122.249,229.384 121.745,229.328 121.689 C 229.272 121.634,229.096 121.963,228.936 122.421 M230.078 124.860 C 229.072 125.321,229.540 125.328,230.729 124.870 C 231.230 124.677,231.465 124.515,231.250 124.511 C 231.035 124.506,230.508 124.664,230.078 124.860 M230.237 127.112 C 230.077 127.572,229.991 127.995,230.047 128.050 C 230.103 128.106,230.279 127.775,230.440 127.315 C 230.600 126.855,230.686 126.432,230.630 126.377 C 230.575 126.321,230.398 126.652,230.237 127.112 M238.324 129.308 C 237.887 130.266,237.970 130.470,238.442 129.599 C 238.663 129.193,238.794 128.811,238.735 128.752 C 238.675 128.692,238.490 128.943,238.324 129.308 M203.070 129.099 C 203.971 129.150,205.377 129.150,206.195 129.098 C 207.013 129.047,206.276 129.005,204.557 129.006 C 202.839 129.006,202.169 129.048,203.070 129.099 M199.287 129.354 C 199.683 129.413,200.269 129.412,200.590 129.350 C 200.910 129.288,200.586 129.239,199.870 129.241 C 199.154 129.243,198.892 129.294,199.287 129.354 M208.789 129.350 C 209.111 129.413,209.639 129.413,209.961 129.350 C 210.283 129.288,210.020 129.238,209.375 129.238 C 208.730 129.238,208.467 129.288,208.789 129.350 M197.073 129.611 C 197.397 129.674,197.866 129.671,198.115 129.606 C 198.364 129.541,198.099 129.490,197.526 129.493 C 196.953 129.496,196.749 129.549,197.073 129.611 M211.263 129.607 C 211.514 129.672,211.924 129.672,212.174 129.607 C 212.425 129.541,212.220 129.488,211.719 129.488 C 211.217 129.488,211.012 129.541,211.263 129.607 M215.234 130.357 C 215.951 130.556,216.654 130.709,216.797 130.697 C 217.238 130.659,215.008 129.988,214.453 129.991 C 214.167 129.993,214.518 130.158,215.234 130.357 M190.498 130.799 C 189.354 131.096,188.534 131.374,188.675 131.418 C 188.817 131.461,189.987 131.218,191.276 130.876 C 192.565 130.535,193.385 130.256,193.099 130.257 C 192.813 130.258,191.642 130.502,190.498 130.799 M237.413 131.554 C 237.178 132.154,237.027 132.687,237.080 132.739 C 237.132 132.791,237.370 132.346,237.609 131.749 C 237.847 131.152,237.997 130.619,237.942 130.564 C 237.887 130.508,237.649 130.954,237.413 131.554 M217.969 131.120 C 219.158 131.578,219.626 131.571,218.620 131.110 C 218.190 130.914,217.663 130.756,217.448 130.761 C 217.233 130.765,217.467 130.927,217.969 131.120 M187.109 131.771 C 186.781 131.912,186.733 131.995,186.979 131.995 C 187.194 131.995,187.604 131.894,187.891 131.771 C 188.219 131.630,188.267 131.547,188.021 131.547 C 187.806 131.547,187.396 131.648,187.109 131.771 M220.546 132.055 C 221.175 132.334,221.737 132.517,221.794 132.460 C 221.906 132.347,219.899 131.499,219.591 131.529 C 219.487 131.539,219.916 131.776,220.546 132.055 M184.375 132.569 C 183.451 132.883,183.263 133.001,183.845 132.901 C 184.902 132.720,186.768 132.065,186.198 132.075 C 185.983 132.079,185.163 132.301,184.375 132.569 M150.651 133.228 C 155.646 137.427,165.203 138.014,177.156 134.854 C 178.844 134.408,180.177 133.997,180.120 133.939 C 180.062 133.882,178.447 134.239,176.531 134.732 C 165.304 137.625,156.281 137.151,151.379 133.410 C 150.065 132.407,149.509 132.268,150.651 133.228 M222.157 132.651 C 222.423 132.893,225.000 134.110,225.000 133.993 C 225.000 133.846,222.513 132.552,222.231 132.552 C 222.131 132.552,222.097 132.597,222.157 132.651 M149.740 133.176 C 149.740 135.280,154.540 139.090,158.490 140.122 C 162.032 141.047,172.792 140.911,173.684 139.930 C 173.763 139.843,173.359 139.839,172.786 139.923 C 161.067 141.628,154.244 139.961,150.739 134.539 C 150.189 133.688,149.740 133.075,149.740 133.176 M181.250 133.464 C 180.749 133.657,180.514 133.815,180.729 133.815 C 180.944 133.815,181.530 133.657,182.031 133.464 C 182.533 133.270,182.767 133.113,182.552 133.113 C 182.337 133.113,181.751 133.270,181.250 133.464 M236.358 134.275 C 236.128 134.951,235.984 135.550,236.039 135.605 C 236.094 135.660,236.328 135.152,236.558 134.475 C 236.789 133.799,236.933 133.200,236.877 133.145 C 236.822 133.090,236.589 133.598,236.358 134.275 M202.533 133.521 C 202.996 133.579,203.816 133.580,204.356 133.523 C 204.896 133.467,204.518 133.420,203.516 133.419 C 202.513 133.418,202.071 133.464,202.533 133.521 M198.898 133.782 C 199.366 133.840,200.069 133.839,200.460 133.780 C 200.852 133.720,200.469 133.673,199.609 133.674 C 198.750 133.676,198.430 133.725,198.898 133.782 M206.710 133.782 C 207.178 133.840,207.882 133.839,208.273 133.780 C 208.664 133.720,208.281 133.673,207.422 133.674 C 206.563 133.676,206.242 133.725,206.710 133.782 M193.381 134.518 C 190.256 135.199,184.823 136.733,184.980 136.890 C 185.035 136.945,186.474 136.589,188.178 136.100 C 190.786 135.351,194.695 134.474,197.396 134.032 C 197.858 133.956,197.782 133.921,197.135 133.912 C 196.634 133.905,194.945 134.178,193.381 134.518 M212.109 135.170 L 209.766 135.332 212.240 135.347 C 213.600 135.354,215.182 135.434,215.755 135.524 C 216.444 135.631,216.621 135.610,216.276 135.460 C 215.364 135.064,214.511 135.004,212.109 135.170 M226.563 135.007 C 226.563 135.078,227.266 135.614,228.125 136.198 C 228.984 136.782,229.688 137.200,229.688 137.129 C 229.688 137.057,228.984 136.521,228.125 135.938 C 227.266 135.354,226.563 134.935,226.563 135.007 M206.047 135.921 C 205.005 136.177,204.067 136.480,203.964 136.594 C 203.861 136.708,203.954 136.738,204.172 136.661 C 204.610 136.505,208.090 135.752,209.115 135.590 C 209.571 135.518,209.493 135.483,208.854 135.471 C 208.353 135.462,207.090 135.665,206.047 135.921 M230.859 136.126 C 231.496 136.790,234.182 138.814,233.647 138.227 C 233.318 137.866,232.498 137.185,231.824 136.713 C 231.150 136.241,230.716 135.977,230.859 136.126 M183.073 137.370 C 182.572 137.563,182.337 137.721,182.552 137.721 C 182.767 137.721,183.353 137.563,183.854 137.370 C 184.355 137.177,184.590 137.019,184.375 137.019 C 184.160 137.019,183.574 137.177,183.073 137.370 M232.451 139.651 C 233.899 141.034,235.761 143.049,236.589 144.130 C 238.254 146.303,238.800 146.779,237.451 144.880 C 236.307 143.270,232.835 139.601,231.159 138.232 C 230.421 137.630,231.003 138.268,232.451 139.651 M199.805 138.308 C 199.053 138.747,198.438 139.163,198.438 139.233 C 198.438 139.338,201.165 137.891,201.541 137.588 C 202.013 137.206,200.911 137.663,199.805 138.308 M178.255 138.674 C 176.536 139.153,175.296 139.553,175.499 139.564 C 175.897 139.585,181.829 138.036,182.010 137.864 C 182.258 137.626,181.205 137.854,178.255 138.674 M128.996 140.234 C 128.996 141.380,129.042 141.817,129.097 141.204 C 129.152 140.592,129.152 139.654,129.096 139.121 C 129.040 138.587,128.995 139.089,128.996 140.234 M196.638 140.371 C 195.909 140.947,195.313 141.482,195.313 141.560 C 195.313 141.638,195.869 141.260,196.549 140.721 C 198.236 139.383,198.304 139.323,198.122 139.323 C 198.035 139.323,197.367 139.794,196.638 140.371 M196.558 142.380 C 197.315 142.433,198.487 142.432,199.162 142.379 C 199.838 142.325,199.219 142.282,197.786 142.283 C 196.354 142.283,195.801 142.327,196.558 142.380 M200.543 142.544 C 200.602 142.596,201.120 142.711,201.693 142.798 C 202.419 142.908,202.577 142.885,202.214 142.720 C 201.714 142.494,200.319 142.346,200.543 142.544 M203.611 143.370 C 204.093 143.579,204.561 143.746,204.652 143.741 C 204.991 143.722,203.500 142.987,203.125 142.988 C 202.910 142.989,203.129 143.160,203.611 143.370 M206.086 144.469 C 207.264 145.124,207.311 145.187,206.737 145.348 C 206.258 145.482,206.352 145.525,207.161 145.540 L 208.203 145.560 206.783 144.655 C 206.002 144.157,205.240 143.753,205.090 143.756 C 204.940 143.760,205.389 144.080,206.086 144.469 M129.471 144.792 C 129.485 145.468,129.895 146.580,129.904 145.964 C 129.908 145.677,129.811 145.208,129.688 144.922 C 129.550 144.603,129.467 144.552,129.471 144.792 M204.492 145.752 C 204.743 145.818,205.153 145.818,205.404 145.752 C 205.654 145.687,205.449 145.633,204.948 145.633 C 204.447 145.633,204.242 145.687,204.492 145.752 M200.130 146.735 C 199.124 147.196,199.592 147.203,200.781 146.745 C 201.283 146.552,201.517 146.390,201.302 146.386 C 201.087 146.381,200.560 146.539,200.130 146.735 M197.135 148.056 C 196.204 148.553,195.091 149.263,194.661 149.632 L 193.880 150.303 194.791 149.696 C 195.292 149.362,196.523 148.652,197.526 148.119 C 198.528 147.585,199.232 147.149,199.089 147.150 C 198.945 147.150,198.066 147.558,197.135 148.056 M239.342 148.047 C 239.664 148.620,240.039 149.206,240.176 149.349 C 240.566 149.758,239.674 148.108,239.190 147.526 C 238.952 147.240,239.020 147.474,239.342 148.047 M130.729 148.780 C 130.729 149.864,133.949 154.424,136.371 156.771 L 138.387 158.724 136.442 156.641 C 133.978 154.000,133.328 153.140,131.892 150.621 C 131.253 149.499,130.729 148.670,130.729 148.780 M196.683 151.489 C 197.079 151.549,197.665 151.547,197.985 151.485 C 198.306 151.424,197.982 151.375,197.266 151.377 C 196.549 151.379,196.287 151.429,196.683 151.489 M199.023 151.742 C 199.274 151.808,199.684 151.808,199.935 151.742 C 200.186 151.677,199.980 151.623,199.479 151.623 C 198.978 151.623,198.773 151.677,199.023 151.742 M201.042 152.083 C 201.932 152.368,202.617 152.368,201.953 152.083 C 201.667 151.960,201.198 151.863,200.911 151.867 C 200.493 151.873,200.518 151.916,201.042 152.083 M205.990 153.906 C 206.777 154.322,207.539 154.663,207.682 154.663 C 207.826 154.663,207.298 154.322,206.510 153.906 C 205.723 153.490,204.961 153.150,204.818 153.150 C 204.674 153.150,205.202 153.490,205.990 153.906 M203.174 155.647 C 202.556 155.865,202.097 156.090,202.153 156.146 C 202.209 156.202,202.890 156.023,203.667 155.747 C 204.443 155.472,204.902 155.247,204.688 155.248 C 204.473 155.249,203.792 155.428,203.174 155.647 M219.596 155.655 C 219.990 155.715,220.635 155.715,221.029 155.655 C 221.423 155.596,221.100 155.547,220.313 155.547 C 219.525 155.547,219.202 155.596,219.596 155.655 M217.166 156.136 C 217.656 156.348,218.476 156.765,218.989 157.063 L 219.922 157.604 219.271 157.061 C 218.913 156.763,218.415 156.451,218.164 156.367 C 217.913 156.283,217.708 156.106,217.708 155.972 C 217.708 155.838,217.386 155.734,216.992 155.739 C 216.286 155.749,216.288 155.755,217.166 156.136 M222.856 155.918 C 223.324 155.976,224.027 155.975,224.419 155.915 C 224.810 155.856,224.427 155.808,223.568 155.810 C 222.708 155.811,222.388 155.860,222.856 155.918 M225.846 156.169 C 226.097 156.235,226.507 156.235,226.758 156.169 C 227.008 156.104,226.803 156.050,226.302 156.050 C 225.801 156.050,225.596 156.104,225.846 156.169 M200.456 156.789 C 199.919 157.072,199.479 157.362,199.479 157.433 C 199.479 157.549,201.536 156.588,201.801 156.348 C 202.101 156.077,201.319 156.333,200.456 156.789 M227.669 156.430 C 227.920 156.495,228.330 156.495,228.581 156.430 C 228.831 156.364,228.626 156.310,228.125 156.310 C 227.624 156.310,227.419 156.364,227.669 156.430 M232.292 157.292 C 232.650 157.406,233.177 157.500,233.464 157.500 C 233.876 157.500,233.849 157.457,233.333 157.292 C 232.975 157.177,232.448 157.083,232.161 157.083 C 231.749 157.083,231.776 157.127,232.292 157.292 M197.504 158.621 C 195.973 159.683,195.043 160.458,195.833 160.013 C 196.302 159.749,198.726 158.070,199.076 157.766 C 199.720 157.208,198.890 157.659,197.504 158.621 M220.703 158.121 C 221.133 158.450,221.964 159.130,222.550 159.633 C 223.303 160.278,223.240 160.183,222.335 159.309 C 221.631 158.627,220.800 157.947,220.488 157.797 C 220.158 157.637,220.247 157.772,220.703 158.121 M234.505 157.813 C 234.792 157.936,235.202 158.036,235.417 158.036 C 235.663 158.036,235.615 157.954,235.286 157.813 C 235.000 157.689,234.590 157.589,234.375 157.589 C 234.129 157.589,234.177 157.671,234.505 157.813 M236.719 158.464 C 237.908 158.921,238.376 158.915,237.370 158.454 C 236.940 158.257,236.413 158.100,236.198 158.104 C 235.983 158.109,236.217 158.270,236.719 158.464 M139.487 159.505 C 140.295 160.253,142.448 161.600,142.448 161.358 C 142.448 161.295,141.833 160.868,141.081 160.411 C 140.329 159.953,139.472 159.386,139.178 159.151 C 138.883 158.916,139.022 159.076,139.487 159.505 M243.295 159.505 C 243.298 160.078,243.351 160.282,243.413 159.958 C 243.476 159.634,243.473 159.165,243.408 158.916 C 243.343 158.667,243.292 158.932,243.295 159.505 M239.820 159.650 C 240.737 160.074,241.531 160.379,241.583 160.327 C 241.697 160.213,238.705 158.849,238.379 158.866 C 238.254 158.873,238.902 159.225,239.820 159.650 M206.055 159.830 C 207.594 159.876,210.114 159.876,211.654 159.830 C 213.193 159.784,211.934 159.746,208.854 159.746 C 205.775 159.746,204.515 159.784,206.055 159.830 M201.110 160.083 C 201.506 160.143,202.092 160.141,202.412 160.079 C 202.733 160.017,202.409 159.968,201.693 159.970 C 200.977 159.972,200.715 160.023,201.110 160.083 M214.865 159.994 C 214.925 160.048,215.794 160.158,216.797 160.238 C 218.198 160.351,218.379 160.331,217.578 160.155 C 216.525 159.923,214.665 159.813,214.865 159.994 M198.633 160.340 C 198.955 160.402,199.482 160.402,199.805 160.340 C 200.127 160.278,199.863 160.227,199.219 160.227 C 198.574 160.227,198.311 160.278,198.633 160.340 M196.553 160.601 C 196.876 160.663,197.345 160.661,197.594 160.596 C 197.843 160.530,197.578 160.479,197.005 160.482 C 196.432 160.485,196.229 160.539,196.553 160.601 M219.661 160.677 C 220.091 160.786,220.736 160.876,221.094 160.876 C 221.674 160.876,221.660 160.854,220.964 160.677 C 220.534 160.568,219.889 160.478,219.531 160.478 C 218.951 160.478,218.965 160.500,219.661 160.677 M142.708 161.587 C 142.708 161.761,146.386 163.597,146.502 163.481 C 146.554 163.429,145.721 162.954,144.652 162.424 C 143.583 161.895,142.708 161.519,142.708 161.587 M163.867 167.117 C 164.404 167.173,165.283 167.173,165.820 167.117 C 166.357 167.061,165.918 167.015,164.844 167.015 C 163.770 167.015,163.330 167.061,163.867 167.117 M168.819 167.114 C 169.215 167.174,169.800 167.172,170.121 167.110 C 170.441 167.049,170.117 167.000,169.401 167.002 C 168.685 167.004,168.423 167.054,168.819 167.114 " stroke="none" fill="#d63004" fill-rule="evenodd"></path><path id="path4" d="M245.854 88.086 C 245.843 88.766,245.927 89.323,246.041 89.323 C 246.156 89.323,246.206 88.883,246.153 88.346 C 246.003 86.835,245.877 86.724,245.854 88.086 M242.769 88.021 C 242.769 88.522,242.822 88.727,242.888 88.477 C 242.953 88.226,242.953 87.816,242.888 87.565 C 242.822 87.314,242.769 87.520,242.769 88.021 M249.284 108.780 C 249.678 108.840,250.322 108.840,250.716 108.780 C 251.110 108.721,250.788 108.672,250.000 108.672 C 249.212 108.672,248.890 108.721,249.284 108.780 M269.124 112.564 C 268.503 113.251,268.485 113.299,269.030 112.822 C 269.398 112.499,269.760 112.294,269.833 112.367 C 269.906 112.440,269.965 112.324,269.965 112.109 C 269.965 111.608,270.013 111.582,269.124 112.564 M267.183 114.198 C 266.937 114.495,266.988 114.542,267.460 114.451 C 268.216 114.305,268.341 114.161,267.869 113.980 C 267.658 113.899,267.350 113.997,267.183 114.198 M245.954 122.456 C 245.243 123.205,244.963 123.556,245.332 123.235 C 245.701 122.914,246.100 122.740,246.220 122.849 C 246.340 122.958,246.363 122.916,246.272 122.756 C 246.181 122.596,246.325 122.267,246.594 122.024 C 246.926 121.723,247.114 121.680,247.183 121.888 C 247.251 122.092,247.401 122.053,247.637 121.767 C 247.945 121.397,247.930 121.365,247.520 121.523 C 247.197 121.647,247.109 121.608,247.238 121.398 C 247.608 120.800,247.227 121.114,245.954 122.456 M203.581 129.357 C 204.189 129.412,205.186 129.412,205.794 129.357 C 206.403 129.303,205.905 129.258,204.688 129.258 C 203.470 129.258,202.972 129.303,203.581 129.357 M211.654 135.607 C 212.262 135.662,213.258 135.662,213.867 135.607 C 214.476 135.553,213.978 135.508,212.760 135.508 C 211.543 135.508,211.045 135.553,211.654 135.607 M151.563 135.759 C 151.563 135.803,151.943 136.184,152.409 136.605 L 153.255 137.370 152.490 136.523 C 151.777 135.735,151.563 135.557,151.563 135.759 M237.388 140.543 C 237.280 140.822,237.432 141.176,237.806 141.519 L 238.392 142.057 237.940 141.509 C 237.687 141.202,237.560 140.772,237.652 140.532 C 237.742 140.297,237.758 140.104,237.686 140.104 C 237.614 140.104,237.480 140.301,237.388 140.543 M163.219 140.549 C 163.543 140.611,164.012 140.609,164.261 140.544 C 164.510 140.478,164.245 140.427,163.672 140.430 C 163.099 140.433,162.895 140.486,163.219 140.549 M165.299 140.548 C 165.622 140.610,166.149 140.610,166.471 140.548 C 166.794 140.486,166.530 140.436,165.885 140.436 C 165.241 140.436,164.977 140.486,165.299 140.548 M207.096 145.752 C 207.347 145.818,207.757 145.818,208.008 145.752 C 208.258 145.687,208.053 145.633,207.552 145.633 C 207.051 145.633,206.846 145.687,207.096 145.752 M243.029 159.635 C 243.029 160.137,243.083 160.342,243.148 160.091 C 243.214 159.840,243.214 159.430,243.148 159.180 C 243.083 158.929,243.029 159.134,243.029 159.635 M205.273 159.555 C 205.524 159.620,205.934 159.620,206.185 159.555 C 206.436 159.489,206.230 159.435,205.729 159.435 C 205.228 159.435,205.023 159.489,205.273 159.555 M211.523 159.555 C 211.774 159.620,212.184 159.620,212.435 159.555 C 212.686 159.489,212.480 159.435,211.979 159.435 C 211.478 159.435,211.273 159.489,211.523 159.555 M203.451 162.950 C 203.988 163.006,204.867 163.006,205.404 162.950 C 205.941 162.894,205.501 162.848,204.427 162.848 C 203.353 162.848,202.913 162.894,203.451 162.950 M208.923 162.947 C 209.319 163.007,209.905 163.006,210.225 162.944 C 210.545 162.882,210.221 162.833,209.505 162.835 C 208.789 162.837,208.527 162.887,208.923 162.947 M247.135 164.453 C 247.135 164.811,247.236 165.104,247.360 165.104 C 247.483 165.104,247.528 164.811,247.460 164.453 C 247.391 164.095,247.290 163.802,247.235 163.802 C 247.180 163.802,247.135 164.095,247.135 164.453 M247.396 165.640 C 247.396 165.792,247.291 165.851,247.163 165.772 C 247.034 165.693,246.861 165.806,246.778 166.023 C 246.654 166.345,246.722 166.367,247.141 166.143 C 247.600 165.897,247.864 165.365,247.526 165.365 C 247.454 165.365,247.396 165.489,247.396 165.640 " stroke="none" fill="#f1ab6e" fill-rule="evenodd"></path></g></svg>